<svg width="24" height="24" viewBox="0 0 24 24" fill="none" xmlns="http://www.w3.org/2000/svg">
<path d="M11.3348 2.18931C11.5756 1.58984 12.4242 1.58984 12.6649 2.18931L14.7978 7.50059C14.9003 7.75587 15.1399 7.92994 15.4143 7.94855L21.1248 8.33574C21.7693 8.37944 22.0315 9.18654 21.5358 9.60074L17.1435 13.2705C16.9324 13.4469 16.8409 13.7285 16.908 13.9953L18.3044 19.5459C18.462 20.1723 17.7755 20.6712 17.2283 20.3277L12.3809 17.2844C12.1479 17.1382 11.8518 17.1382 11.6188 17.2844L6.7714 20.3277C6.22429 20.6712 5.53773 20.1724 5.69533 19.5459L7.0917 13.9953C7.15882 13.7285 7.0673 13.4469 6.8562 13.2705L2.46396 9.60074C1.96823 9.18654 2.23047 8.37944 2.87499 8.33574L8.5854 7.94855C8.85986 7.92994 9.09945 7.75587 9.20196 7.50059L11.3348 2.18931Z" stroke="#5661CB" stroke-width="1.43333" stroke-linecap="square"/>
</svg>
