<svg width="26" height="26" viewBox="0 0 26 26" fill="none" xmlns="http://www.w3.org/2000/svg">
  <g clip-path="url(#clip0_972_92)">
    <path d="M13.8125 24.375C11.7135 24.375 9.74154 23.8672 7.89648 22.8516L0 26L3.14844 18.1035C2.13281 16.2585 1.625 14.2865 1.625 12.1875C1.625 10.5286 1.94661 8.9502 2.58984 7.45215C3.23307 5.9541 4.10059 4.65918 5.19238 3.56738C6.28418 2.47559 7.5791 1.60807 9.07715 0.964844C10.5752 0.321615 12.1536 0 13.8125 0C15.4714 0 17.0498 0.321615 18.5479 0.964844C20.0459 1.60807 21.3408 2.47559 22.4326 3.56738C23.5244 4.65918 24.3919 5.9541 25.0352 7.45215C25.6784 8.9502 26 10.5286 26 12.1875C26 13.8464 25.6784 15.4248 25.0352 16.9229C24.3919 18.4209 23.5244 19.7158 22.4326 20.8076C21.3408 21.8994 20.0459 22.7669 18.5479 23.4102C17.0498 24.0534 15.4714 24.375 13.8125 24.375ZM17.875 14.625H16.25L15.3359 15.4375C14.5742 15.2344 13.639 14.5785 12.5303 13.4697C11.4215 12.361 10.7656 11.4258 10.5625 10.6641L11.375 9.75V8.125C11.375 7.83724 11.2734 7.54948 11.0703 7.26172C10.8672 6.97396 10.6429 6.7666 10.3975 6.63965C10.152 6.5127 9.97852 6.5 9.87695 6.60156L8.68359 7.79492C8.02344 8.45508 7.92611 9.4834 8.3916 10.8799C8.8571 12.2764 9.74577 13.6305 11.0576 14.9424C12.3695 16.2542 13.7236 17.1429 15.1201 17.6084C16.5166 18.0739 17.5449 17.9766 18.2051 17.3164L19.3984 16.123C19.5 16.0215 19.4873 15.848 19.3604 15.6025C19.2334 15.3571 19.026 15.1328 18.7383 14.9297C18.4505 14.7266 18.1628 14.625 17.875 14.625Z" fill="#46C756" />
  </g>
  <defs>
    <clipPath id="clip0_972_92">
      <rect width="26" height="26" fill="white" />
    </clipPath>
  </defs>
</svg>