<svg width="67" height="53" viewBox="0 0 67 53" fill="none" xmlns="http://www.w3.org/2000/svg">
  <g clip-path="url(#clip0_972_82)">
    <path d="M12.1803 52.7368V49.2289C12.1803 47.8839 11.3757 47.0072 9.99674 47.0072C9.30737 47.0072 8.56043 47.241 8.04327 48.0011C7.64127 47.3579 7.0668 47.0072 6.20496 47.0072C5.63022 47.0072 5.05601 47.1824 4.59617 47.8256V47.1241H3.38965V52.7368H4.59617V49.638C4.59617 48.6443 5.11333 48.1764 5.91785 48.1764C6.72185 48.1764 7.12438 48.7026 7.12438 49.638V52.7368H8.3309V49.638C8.3309 48.6443 8.90511 48.1764 9.65206 48.1764C10.4566 48.1764 10.8586 48.7026 10.8586 49.638V52.7368H12.1803ZM30.0481 47.1241H28.0949V45.4286H26.8883V47.1241H25.7967V48.2347H26.8881V50.8074C26.8881 52.0938 27.4052 52.8537 28.7842 52.8537C29.3014 52.8537 29.8756 52.6784 30.2781 52.4446L29.9332 51.392C29.5885 51.6259 29.1865 51.6845 28.8991 51.6845C28.3246 51.6845 28.0949 51.3337 28.0949 50.7489V48.2347H30.0481V47.1241ZM40.275 47.0069C39.5856 47.0069 39.126 47.3579 38.8387 47.8256V47.1241H37.6321V52.7368H38.8387V49.5797C38.8387 48.6443 39.2407 48.118 39.9876 48.118C40.2174 48.118 40.5048 48.1766 40.7346 48.235L41.0792 47.0658C40.8495 47.0072 40.5048 47.0072 40.275 47.0072V47.0069ZM24.82 47.5918C24.2452 47.1824 23.441 47.0072 22.5791 47.0072C21.2004 47.0072 20.2812 47.7087 20.2812 48.8195C20.2812 49.7552 20.9706 50.2812 22.1771 50.4567L22.7516 50.5153C23.3837 50.6319 23.7283 50.8074 23.7283 51.0999C23.7283 51.509 23.2688 51.8014 22.4642 51.8014C21.66 51.8014 21.0279 51.509 20.6257 51.2168L20.0512 52.1522C20.6832 52.6198 21.5451 52.8537 22.4067 52.8537C24.0154 52.8537 24.9349 52.0938 24.9349 51.0413C24.9349 50.0473 24.1879 49.5211 23.0387 49.3458L22.4642 49.2872C21.9471 49.2286 21.5451 49.112 21.5451 48.7612C21.5451 48.3519 21.9471 48.118 22.5791 48.118C23.2688 48.118 23.9581 48.4102 24.3028 48.5857L24.82 47.5918ZM56.8792 47.0072C56.1896 47.0072 55.73 47.3579 55.4426 47.8256V47.1241H54.2361V52.7368H55.4426V49.5797C55.4426 48.6443 55.8449 48.118 56.5916 48.118C56.8216 48.118 57.109 48.1766 57.3388 48.235L57.6835 47.0658C57.4537 47.0072 57.109 47.0072 56.8792 47.0072ZM41.4815 49.9304C41.4815 51.6259 42.6304 52.8537 44.4117 52.8537C45.216 52.8537 45.7904 52.6784 46.3649 52.2107L45.7904 51.2168C45.3309 51.5676 44.8713 51.7428 44.3541 51.7428C43.3774 51.7428 42.688 51.0413 42.688 49.9304C42.688 48.8781 43.3774 48.1764 44.3541 48.118C44.8713 48.118 45.3309 48.2933 45.7904 48.6443L46.3649 47.6504C45.7904 47.1824 45.216 47.0072 44.4117 47.0072C42.6304 47.0072 41.4815 48.235 41.4815 49.9304ZM52.6276 49.9304V47.1241H51.4211V47.8256C51.0188 47.2996 50.4443 47.0072 49.6974 47.0072C48.1462 47.0072 46.9397 48.235 46.9397 49.9304C46.9397 51.6259 48.1462 52.8537 49.6974 52.8537C50.5016 52.8537 51.0764 52.5615 51.4211 52.0352V52.7368H52.6276V49.9304ZM48.2035 49.9304C48.2035 48.9365 48.8355 48.118 49.8696 48.118C50.8463 48.118 51.536 48.8781 51.536 49.9304C51.536 50.9244 50.8463 51.7428 49.8696 51.7428C48.8355 51.6842 48.2035 50.9244 48.2035 49.9304ZM33.7828 47.0072C32.174 47.0072 31.0248 48.1764 31.0248 49.9304C31.0248 51.6845 32.1737 52.8537 33.8401 52.8537C34.6444 52.8537 35.4489 52.6198 36.0809 52.0938L35.5062 51.2168C35.0466 51.5676 34.4722 51.8014 33.8977 51.8014C33.1507 51.8014 32.4038 51.4506 32.2313 50.4564H36.3107V49.989C36.3683 48.1764 35.334 47.0072 33.7825 47.0072H33.7828ZM33.7828 48.0594C34.5295 48.0594 35.0469 48.5274 35.1615 49.4044H32.2889C32.4038 48.6443 32.9209 48.0594 33.7828 48.0594ZM63.7161 49.9304V44.9023H62.5096V47.8256C62.1073 47.2996 61.5328 47.0072 60.7859 47.0072C59.2347 47.0072 58.0281 48.235 58.0281 49.9304C58.0281 51.6259 59.2347 52.8537 60.7859 52.8537C61.5904 52.8537 62.1649 52.5615 62.5096 52.0352V52.7368H63.7161V49.9304ZM59.2923 49.9304C59.2923 48.9365 59.924 48.118 60.9584 48.118C61.9351 48.118 62.6245 48.8781 62.6245 49.9304C62.6245 50.9244 61.9351 51.7428 60.9584 51.7428C59.924 51.6842 59.2923 50.9244 59.2923 49.9304ZM18.9596 49.9304V47.1241H17.753V47.8256C17.3508 47.2996 16.7763 47.0072 16.0294 47.0072C14.4781 47.0072 13.2716 48.235 13.2716 49.9304C13.2716 51.6259 14.4781 52.8537 16.0294 52.8537C16.8339 52.8537 17.4084 52.5615 17.753 52.0352V52.7368H18.9596V49.9304ZM14.4781 49.9304C14.4781 48.9365 15.1102 48.118 16.1442 48.118C17.121 48.118 17.8106 48.8781 17.8106 49.9304C17.8106 50.9244 17.121 51.7428 16.1442 51.7428C15.1102 51.6842 14.4781 50.9244 14.4781 49.9304Z" fill="black" />
    <path d="M24.418 4.50195H42.5158V37.5939H24.418V4.50195Z" fill="#FF5F00" />
    <path d="M25.567 21.0479C25.567 14.3244 28.6695 8.36068 33.438 4.5018C29.9336 1.69547 25.5097 0 20.6836 0C9.24993 0 0 9.41296 0 21.0479C0 32.6826 9.24993 42.0958 20.6834 42.0958C25.5095 42.0958 29.9333 40.4004 33.438 37.5938C28.6695 33.7935 25.567 27.7715 25.567 21.0479Z" fill="#EB001B" />
    <path d="M66.9336 21.0479C66.9336 32.6826 57.6837 42.0958 46.2502 42.0958C41.4241 42.0958 37.0003 40.4004 33.4956 37.5938C38.3217 33.7352 41.3668 27.7715 41.3668 21.0479C41.3668 14.3244 38.2641 8.36068 33.4956 4.5018C37 1.69547 41.4241 0 46.2502 0C57.6837 0 66.9338 9.47155 66.9338 21.0479H66.9336Z" fill="#F79E1B" />
  </g>
  <defs>
    <clipPath id="clip0_972_82">
      <rect width="67" height="53" fill="white" />
    </clipPath>
  </defs>
</svg>