<svg width="16" height="18" viewBox="0 0 16 18" fill="none" xmlns="http://www.w3.org/2000/svg">
  <path d="M5.88321 0C7.44354 0 8.93995 0.684819 10.0433 1.90381C11.1466 3.12279 11.7664 4.77609 11.7664 6.5C11.7664 8.11 11.2324 9.59 10.3545 10.73L10.5988 11H11.3139L15.8394 16L14.4818 17.5L9.9562 12.5V11.71L9.71182 11.44C8.64429 12.4468 7.28677 12.9999 5.88321 13C4.32289 13 2.82647 12.3152 1.72315 11.0962C0.619836 9.87721 0 8.22391 0 6.5C0 4.77609 0.619836 3.12279 1.72315 1.90381C2.82647 0.684819 4.32289 0 5.88321 0ZM5.88321 2C3.62044 2 1.81022 4 1.81022 6.5C1.81022 9 3.62044 11 5.88321 11C8.14599 11 9.9562 9 9.9562 6.5C9.9562 4 8.14599 2 5.88321 2Z" fill="#5661CB" />
</svg>