<svg width="29" height="31" viewBox="0 0 29 31" fill="none" xmlns="http://www.w3.org/2000/svg">
  <g clip-path="url(#clip0_766_8560)">
    <path d="M28.5682 29.7279C28.4393 29.3842 27.5371 27.2363 26.4632 25.6897C26.0765 25.1313 25.6899 24.6587 25.2603 24.401C24.6589 23.9714 23.6708 23.6706 22.9405 23.4558C22.7687 23.4129 22.6398 23.3699 22.4679 23.327L22.2531 23.1981C21.6517 23.0263 21.6517 23.0263 20.7496 22.7255L20.5348 22.6826C19.3319 22.2959 18.2579 21.9523 17.6994 21.8234V19.3747C18.3438 18.6874 20.7496 15.895 21.308 12.0286C21.351 11.8568 21.351 11.642 21.3939 11.4702C22.0813 11.1265 22.5109 10.6969 22.7257 10.1814C23.1982 9.1074 22.5109 8.11933 22.2102 7.7327C22.1243 6.40095 21.7806 4.03819 20.1481 2.27685C18.7734 0.77327 16.7973 0 14.2627 0C12.1577 0 10.4393 0.644391 9.15051 1.97613C7.34622 3.82339 6.87366 6.44391 6.78774 7.77566C6.44407 8.16229 5.75672 9.1074 6.18631 10.1384C6.40111 10.6539 6.8307 11.0835 7.51805 11.4272C7.51805 11.599 7.56101 11.8138 7.56101 12.0286C7.56101 12.1146 7.56101 12.2005 7.60397 12.2864C8.11949 16.7112 10.1386 18.8162 10.8689 19.3747V21.7804C9.06459 22.2959 3.65171 23.9284 2.66364 24.8735C2.66364 24.8735 2.66364 24.9165 2.62068 24.9165C1.07414 26.463 0.0860726 29.8998 0.0431132 30.0286C-0.0428056 30.3294 0.129032 30.6301 0.429748 30.673C0.472707 30.716 0.515667 30.716 0.601586 30.716C0.859342 30.716 1.07414 30.5442 1.1171 30.3294C1.16006 30.2864 2.10517 26.9785 3.43691 25.5609C3.69466 25.3031 4.63977 24.8735 5.84264 24.4439V30.4582C5.84264 30.673 6.01447 30.8449 6.22927 30.8449C6.44407 30.8449 6.61591 30.673 6.61591 30.4582V24.1862C6.95958 24.0573 7.34622 23.9284 7.68989 23.7995V30.4582C7.68989 30.673 7.86173 30.8449 8.07653 30.8449C8.33428 30.8449 8.46316 30.673 8.46316 30.4582V23.5847C9.53715 23.2411 10.6541 22.8974 11.5562 22.6826C11.814 22.6396 11.9429 22.4248 11.9429 22.1671V19.1169C11.9429 18.9451 11.857 18.8162 11.6851 18.6874C11.6422 18.6874 9.23643 16.926 8.635 12.1575C8.635 12.0716 8.635 11.9857 8.59204 11.8998C10.0527 12.2864 12.0288 12.4582 14.6064 12.4582C17.0121 12.4582 18.9023 12.2864 20.234 11.8998C19.5897 15.852 16.7973 18.7303 16.7543 18.7733C16.6684 18.8592 16.5825 19.031 16.5825 19.1599V22.253C16.5825 22.5107 16.7543 22.6826 16.9691 22.7685C16.9691 22.7685 18.4727 23.2411 20.1481 23.7566V30.5012C20.1481 30.716 20.32 30.8878 20.5348 30.8878C20.7925 30.8878 20.9214 30.716 20.9214 30.5012V23.9284C21.308 24.0573 21.4369 24.1002 21.8665 24.2291L22.0383 24.2721V30.4582C22.0383 30.673 22.2102 30.8449 22.425 30.8449C22.6398 30.8449 22.8116 30.673 22.8116 30.4582V24.5298C23.456 24.7446 24.1863 25.0024 24.6159 25.2601C25.6469 25.9475 27.1076 28.9976 27.5371 30.1146C27.6231 30.2864 27.7949 30.4153 28.0097 30.4153C28.0527 30.4153 28.1386 30.4153 28.2245 30.3723C28.5682 30.3294 28.6971 29.9857 28.5682 29.7279ZM7.13142 9.75179C6.87366 9.15036 7.64693 8.33413 7.64693 8.33413C7.77581 8.20525 7.81877 8.03341 7.81877 7.81862C7.94765 6.61575 8.37724 4.25298 9.92378 2.66348C10.5252 2.06205 11.2126 1.63246 12.0718 1.33174V3.43675C12.0718 3.65155 12.2436 3.82339 12.4584 3.82339C12.7161 3.82339 12.845 3.65155 12.845 3.43675V1.20286C13.1887 1.1599 13.5324 1.11695 13.919 1.07399V4.03819C13.919 4.25298 14.0908 4.42482 14.3056 4.42482C14.5634 4.42482 14.6923 4.25298 14.6923 4.03819V1.07399C15.036 1.07399 15.3796 1.11695 15.6803 1.1599V3.43675C15.6803 3.65155 15.8522 3.82339 16.067 3.82339C16.2818 3.82339 16.4536 3.65155 16.4536 3.43675V1.33174C17.6135 1.63246 18.5586 2.19093 19.2889 2.9642C20.7496 4.5537 21.0073 6.78759 21.0503 7.94749H21.0932C21.0932 8.07637 21.1362 8.20525 21.2221 8.33413C21.2651 8.33413 21.9524 9.1074 21.6947 9.75179C21.4799 10.2673 20.3629 11.3842 14.5634 11.3842C8.46316 11.4272 7.34622 10.2673 7.13142 9.75179Z" fill="white" />
    <path d="M19.8472 8.63483C19.8042 8.42004 19.5894 8.2482 19.3746 8.33412C16.1956 8.97851 12.9307 8.97851 9.75173 8.37708L9.49397 8.33412C9.23621 8.29116 9.06437 8.42004 9.02141 8.63483C8.97846 8.89259 9.10733 9.06443 9.32213 9.10739L9.57989 9.15035C11.1694 9.45106 12.8018 9.6229 14.4343 9.6229C16.1527 9.6229 17.8281 9.45106 19.5465 9.10739C19.7613 9.02147 19.8902 8.80667 19.8472 8.63483Z" fill="#5661CB" />
  </g>
  <defs>
    <clipPath id="clip0_766_8560">
      <rect width="28.611" height="30.8878" fill="white" />
    </clipPath>
  </defs>
</svg>