<svg width="29" height="27" viewBox="0 0 29 27" fill="none" xmlns="http://www.w3.org/2000/svg">
  <g clip-path="url(#clip0_766_8567)">
    <path d="M13.2315 20.4057H0.472554C0.214797 20.4057 0 20.6205 0 20.8782V26.42C0 26.6777 0.214797 26.8925 0.472554 26.8925H13.2745C13.5322 26.8925 13.747 26.6777 13.747 26.4629V20.8782C13.747 20.6205 13.4893 20.4057 13.2315 20.4057ZM12.759 25.9474H0.945107V21.3508H12.8019C12.8019 21.3508 12.8019 25.9474 12.759 25.9474ZM27.7518 20.4057H14.9928C14.7351 20.4057 14.5203 20.6205 14.5203 20.8782V26.42C14.5203 26.6777 14.7351 26.8925 14.9928 26.8925H27.7947C28.0525 26.8925 28.2673 26.6777 28.2673 26.4629V20.8782C28.2673 20.6205 28.0525 20.4057 27.7518 20.4057ZM27.2792 25.9474H15.4654V21.3508H27.3222L27.2792 25.9474ZM7.81862 13.2314C7.56086 13.2314 7.34606 13.4462 7.34606 13.704V19.2458C7.34606 19.5035 7.56086 19.7183 7.81862 19.7183H20.6205C20.8783 19.7183 21.0931 19.5035 21.0931 19.2458V13.704C21.0931 13.4462 20.8783 13.2314 20.6205 13.2314H7.81862ZM8.29117 18.7732V14.1766H20.148L20.1909 18.7732H8.29117Z" fill="#5661CB" />
    <path d="M8.76367 10.7397C9.02143 11.0834 9.40806 11.2982 9.83766 11.2982C10.2673 11.2982 10.6968 11.0404 10.9116 10.6968L12.2434 8.46288L13.0167 8.93544C13.0596 8.9784 13.1455 8.9784 13.1885 8.9784C13.3174 8.9784 13.4033 8.89248 13.4892 8.80656L13.704 8.41992H13.747L19.1169 9.27911L18.7303 9.79462C18.6443 9.88054 18.6014 9.96646 18.6014 10.1813C18.6014 10.3101 18.7303 10.3531 18.8162 10.439L25.0023 14.9498C25.0883 14.9927 25.1742 15.0357 25.3031 15.0357C25.4749 15.0357 25.6038 14.9927 25.6897 14.8638L27.3651 12.544C27.451 12.4581 27.5369 12.2433 27.494 12.1144C27.451 11.9856 27.4081 11.9426 27.3221 11.8567L21.136 7.43186C20.9212 7.30298 20.6205 7.34594 20.4916 7.51778L19.8042 8.46288L14.3054 7.60369L14.3914 7.43186C14.4343 7.34594 14.4773 7.21706 14.4343 7.13114C14.3914 7.04522 14.3484 7.00226 14.2625 6.9593L13.4892 6.44379L14.735 4.38174C14.9928 4.03806 14.9928 3.60847 14.8639 3.22183C14.6921 2.8352 14.3914 2.57744 14.0047 2.44856L4.12405 0.0428344C3.6515 -0.0860438 3.13599 0.0857939 2.87823 0.515388C2.53455 0.944982 2.53455 1.50346 2.87823 1.93305L8.76367 10.7397ZM21.0071 8.46288L26.42 12.4151L25.3031 13.9187L19.8472 9.96646L21.0071 8.46288ZM13.6181 7.34594L13.1026 8.11921L12.5011 7.73257L10.3961 6.40083C10.1813 6.27195 10.1384 6.01419 10.2673 5.7994L10.3102 5.71348C10.4391 5.49868 10.6968 5.45572 10.9116 5.5846L13.6181 7.34594ZM3.60854 1.0309C3.6515 0.987942 3.73742 0.944982 3.78038 0.944982H3.8663L13.704 3.35071C13.7899 3.35071 13.9188 3.43663 13.9618 3.52255C14.0047 3.60847 14.0047 3.73734 13.9188 3.82326L12.673 5.88532L11.2124 4.94021C10.7398 4.63949 10.0954 4.76837 9.7947 5.24092L9.62286 5.49868C9.49398 5.75644 9.45102 6.05715 9.49398 6.27195C9.5799 6.52971 9.66582 6.74451 9.96654 6.91634L11.556 7.90441L10.1813 10.1383C10.1384 10.2242 10.0095 10.3101 9.88062 10.3101C9.75174 10.3101 9.66582 10.2672 9.5799 10.1813L3.60854 1.37458C3.52262 1.28866 3.52262 1.15978 3.60854 1.0309ZM10.3961 14.8209L9.3651 15.8519C9.23622 15.9808 9.23622 16.1956 9.3651 16.3245C9.40806 16.3674 9.49398 16.4104 9.5799 16.4104C9.66582 16.4104 9.75174 16.4104 9.83766 16.3245L10.8687 15.2934C10.9976 15.1646 10.9976 14.9498 10.8687 14.8209C10.7398 14.692 10.525 14.692 10.3961 14.8209ZM10.3961 16.3674L9.3651 17.3984C9.23622 17.5273 9.23622 17.7421 9.3651 17.871C9.40806 17.914 9.49398 17.9569 9.5799 17.9569C9.66582 17.9569 9.75174 17.914 9.83766 17.871L10.8687 16.84C10.9976 16.7111 10.9976 16.4963 10.8687 16.3674C10.7398 16.2385 10.525 16.2385 10.3961 16.3674ZM2.31976 23.6705C2.40568 23.6705 2.49159 23.6705 2.53455 23.6276L3.56558 22.5965C3.69446 22.4677 3.69446 22.2529 3.56558 22.124C3.4367 21.9951 3.2219 21.9951 3.09303 22.124L2.10496 23.112C1.97608 23.2409 1.97608 23.4557 2.10496 23.5846C2.14792 23.6276 2.23384 23.6705 2.31976 23.6705ZM2.31976 25.2171C2.40568 25.2171 2.49159 25.1741 2.53455 25.1311L3.56558 24.1001C3.69446 23.9712 3.69446 23.7564 3.56558 23.6276C3.4367 23.4987 3.2219 23.4987 3.09303 23.6276L2.10496 24.6586C1.97608 24.7875 1.97608 25.0023 2.10496 25.1311C2.14792 25.1741 2.23384 25.2171 2.31976 25.2171ZM16.926 23.6705C17.0119 23.6705 17.0978 23.6705 17.1837 23.5846L18.2147 22.5536C18.3436 22.4247 18.3436 22.2099 18.2147 22.081C18.0859 21.9521 17.8711 21.9521 17.7422 22.081L16.7112 23.112C16.5823 23.2409 16.5823 23.4557 16.7112 23.5846C16.7541 23.6276 16.84 23.6705 16.926 23.6705ZM16.926 25.2171C17.0119 25.2171 17.0978 25.1741 17.1837 25.1311L18.2147 24.1001C18.3436 23.9712 18.3436 23.7564 18.2147 23.6276C18.0859 23.4987 17.8711 23.4987 17.7422 23.6276L16.7112 24.6586C16.5823 24.7875 16.5823 25.0023 16.7112 25.1311C16.7541 25.1741 16.84 25.2171 16.926 25.2171Z" fill="#5661CB" />
  </g>
  <defs>
    <clipPath id="clip0_766_8567">
      <rect width="28.2673" height="26.8926" fill="white" />
    </clipPath>
  </defs>
</svg>