<svg width="119" height="53" viewBox="0 0 119 53" fill="none" xmlns="http://www.w3.org/2000/svg">
  <g clip-path="url(#clip0_972_83)">
    <path d="M45.0576 0.678772L29.5201 37.8522H19.3837L11.7376 8.18432C11.274 6.36139 10.8712 5.69053 9.46054 4.9197C7.15474 3.66351 3.34698 2.48868 0 1.75783L0.225759 0.678772H16.5453C18.6221 0.678772 20.4921 2.06561 20.9677 4.46688L25.0077 25.9798L34.9819 0.678772H45.0576ZM58.7607 0.678772L50.8323 37.8522H41.242L49.1713 0.678772H58.7612H58.7607ZM84.7744 25.7152C84.8143 15.906 71.2502 15.3616 71.3388 10.9789C71.3712 9.64647 72.6368 8.22802 75.4071 7.86539C76.7792 7.68732 80.5703 7.54553 84.8644 9.52977L86.5443 1.64207C84.2372 0.805228 81.268 0 77.5747 0C68.0947 0 61.4263 5.04988 61.373 12.2867C61.3108 17.6397 66.1361 20.623 69.765 22.406C73.5027 24.2266 74.7562 25.3968 74.7391 27.024C74.7122 29.5182 71.7537 30.6224 69.0033 30.6633C64.1803 30.74 61.3845 29.356 59.1543 28.3141L57.4136 36.4631C59.6573 37.4942 63.7923 38.3901 68.0753 38.4357C78.1533 38.4357 84.7448 33.4439 84.7744 25.7157V25.7152ZM109.807 37.8522H118.674L110.928 0.678772H102.747C100.902 0.678772 99.3514 1.75272 98.6635 3.40362L84.2742 37.8522H94.3444L96.3419 32.2993H108.645L109.808 37.8522H109.807ZM99.1034 24.6817L104.153 10.7218L107.053 24.6817H99.1029H99.1034ZM71.0342 48.0845H67.1374V51.7215H71.4959V52.815H65.8246V42.7254H71.2725V43.8189H67.1374V47.0068H71.0338V48.0854L71.0342 48.0845ZM73.5092 42.1866H74.8221V52.8145H73.5092V42.1866ZM78.1347 49.4313C78.1644 51.2133 79.2844 51.9465 80.612 51.9465C81.5531 51.9465 82.1349 51.7819 82.6133 51.5727L82.8515 52.516C82.3889 52.7252 81.5832 52.9795 80.4331 52.9795C78.2098 52.9795 76.8817 51.4979 76.8817 49.3119C76.8817 47.1268 78.1644 45.4196 80.2695 45.4196C82.6429 45.4196 83.2549 47.4861 83.2549 48.8181C83.2549 49.0873 83.2395 49.2816 83.2094 49.4318H78.1347V49.4313ZM81.9856 48.4885C82.0009 47.6656 81.6426 46.3629 80.1647 46.3629C78.8213 46.3629 78.2539 47.5754 78.1491 48.4885H81.9856ZM90.4012 52.5602C90.0582 52.7252 89.2966 52.98 88.3268 52.98C86.1475 52.98 84.7295 51.4979 84.7295 49.2821C84.7295 47.0514 86.2514 45.4201 88.61 45.4201C89.386 45.4201 90.0726 45.6139 90.4309 45.8092L90.1333 46.812C89.8185 46.6474 89.3262 46.4671 88.61 46.4671C86.9528 46.4671 86.0581 47.7098 86.0581 49.2077C86.0581 50.8837 87.1326 51.9168 88.5655 51.9168C89.3119 51.9168 89.8042 51.7373 90.1773 51.5727L90.4012 52.5602ZM94.0857 43.8329V45.5693H95.9659V46.5717H94.0857V50.4792C94.0857 51.3784 94.3397 51.8865 95.0708 51.8865C95.4287 51.8865 95.6382 51.8573 95.8324 51.7963L95.8922 52.8006C95.6382 52.8898 95.2354 52.9795 94.7277 52.9795C94.1154 52.9795 93.6226 52.7699 93.3097 52.4263C92.9513 52.0214 92.8021 51.3784 92.8021 50.5248V46.5717H91.6821V45.5693H92.8021V44.2225L94.0862 43.8333L94.0857 43.8329ZM97.8003 47.8302C97.8003 46.9766 97.7845 46.2434 97.7405 45.5693H98.8901L98.9504 47.0059H98.994C99.3231 46.0338 100.128 45.4196 101.009 45.4196C101.144 45.4196 101.248 45.435 101.368 45.4494V46.6925C101.233 46.6618 101.1 46.6618 100.919 46.6618C99.9948 46.6618 99.337 47.3504 99.1585 48.3393C99.1277 48.5423 99.1127 48.7475 99.1136 48.9529V52.8154H97.8003V47.8302ZM109.441 49.1319C109.441 51.8117 107.575 52.9795 105.844 52.9795C103.903 52.9795 102.381 51.542 102.381 49.2523C102.381 46.8418 103.978 45.4201 105.963 45.4201C108.038 45.4201 109.441 46.931 109.441 49.1324V49.1319ZM103.724 49.2072C103.724 50.794 104.619 51.9921 105.903 51.9921C107.157 51.9921 108.097 50.8084 108.097 49.177C108.097 47.9497 107.485 46.4071 105.933 46.4071C104.396 46.4071 103.724 47.8451 103.724 49.2072ZM111.454 47.5303C111.454 46.7674 111.438 46.1681 111.394 45.5698H112.558L112.633 46.7674H112.662C113.021 46.0933 113.856 45.4201 115.051 45.4201C116.05 45.4201 117.603 46.0189 117.603 48.5029V52.815H116.29V48.6382C116.29 47.4713 115.857 46.4973 114.618 46.4973C113.767 46.4973 113.095 47.1114 112.857 47.8446C112.797 48.0096 112.767 48.2337 112.767 48.4587V52.815H111.454V47.5303Z" fill="#1A1F71" />
  </g>
  <defs>
    <clipPath id="clip0_972_83">
      <rect width="118.674" height="53" fill="white" />
    </clipPath>
  </defs>
</svg>